<svg id="Group_2678" data-name="Group 2678" xmlns="http://www.w3.org/2000/svg" width="545.07" height="86.559" viewBox="0 0 545.07 86.559">
  <rect id="Rectangle1" width="545.07" height="86.559" rx="10" fill="#fcfbfb"/>
  <text id="Request_Vehicle" data-name="Request Vehicle" transform="translate(182.268 48.764)" fill="#070707" font-size="25" font-family="Roboto-Medium, Roboto" font-weight="500"><tspan x="-90.082" y="0">Request Vehicle</tspan></text>
  <g id="completed-tasks" transform="translate(36.541 26.436)">
    <g id="Layer_1_2_" transform="translate(0)">
      <g id="Group_2601" data-name="Group 2601">
        <path id="Path_336" data-name="Path 336" d="M4.665,27.609V3.681H23.99v20.1l3.682-3.041V1.841A1.84,1.84,0,0,0,25.832,0H2.825A1.84,1.84,0,0,0,.985,1.841V29.449a1.84,1.84,0,0,0,1.84,1.841H18.886l-2.6-3.68Z" transform="translate(-0.985 0)" fill="#f1c40e"/>
        <path id="Path_337" data-name="Path 337" d="M39.021,27.51a.92.92,0,0,0-1.217-.041l-8.442,6.977-5.626-3.375a.92.92,0,0,0-1.225,1.32l6.1,8.627a.922.922,0,0,0,.743.389h.009a.917.917,0,0,0,.742-.376l9.031-12.309A.922.922,0,0,0,39.021,27.51Z" transform="translate(-7.035 -7.721)" fill="#f1c40e"/>
        <path id="Path_338" data-name="Path 338" d="M22.214,8.988H11.17a1.841,1.841,0,0,0,0,3.681H22.213a1.841,1.841,0,0,0,0-3.681Z" transform="translate(-3.349 -2.546)" fill="#f1c40e"/>
        <path id="Path_339" data-name="Path 339" d="M22.214,16.691H11.17a1.841,1.841,0,0,0,0,3.681H22.213a1.841,1.841,0,0,0,0-3.681Z" transform="translate(-3.349 -4.728)" fill="#f1c40e"/>
        <path id="Path_340" data-name="Path 340" d="M22.214,24.395H11.17a1.841,1.841,0,0,0,0,3.681H22.213a1.841,1.841,0,0,0,0-3.681Z" transform="translate(-3.349 -6.91)" fill="#f1c40e"/>
      </g>
    </g>
  </g>
  <g id="trainer_list" data-name="trainer list" transform="matrix(0.998, -0.07, 0.07, 0.998, 480.799, 32.302)">
    <line id="Line_17" data-name="Line 17" y1="11.402" x2="13.065" transform="translate(0 11.519)" fill="none" stroke="#090909" stroke-linecap="round" stroke-width="2"/>
    <path id="Path_44" data-name="Path 44" d="M0,0,12.937,11.489" transform="translate(0.128 0)" fill="none" stroke="#090909" stroke-linecap="round" stroke-width="2"/>
  </g>
</svg>
