<svg id="Group_2680" data-name="Group 2680" xmlns="http://www.w3.org/2000/svg" width="545.07" height="86.559" viewBox="0 0 545.07 86.559">
  <rect id="Rectangle_536" data-name="Rectangle 536" width="545.07" height="86.559" rx="10" fill="#fcfbfb"/>
  <g id="Group_2679" data-name="Group 2679">
    <text id="Theft_Request" data-name="Theft Request" transform="translate(174.822 52.312)" fill="#070707" font-size="25" font-family="Roboto-Medium, Roboto" font-weight="500"><tspan x="-78.802" y="0">Theft Request</tspan></text>
    <g id="goals_list" data-name="goals list" transform="matrix(0.998, -0.07, 0.07, 0.998, 481.365, 32.302)">
      <line id="Line_17" data-name="Line 17" y1="11.402" x2="13.065" transform="translate(0 11.519)" fill="none" stroke="#090909" stroke-linecap="round" stroke-width="2"/>
      <path id="Path_44" data-name="Path 44" d="M0,0,12.937,11.489" transform="translate(0.128 0)" fill="none" stroke="#090909" stroke-linecap="round" stroke-width="2"/>
    </g>
    <g id="Group_2602" data-name="Group 2602" transform="translate(37.107 24.498)">
      <path id="Path_342" data-name="Path 342" d="M31.46,9.592l4.708-4.7a1.069,1.069,0,0,0-.755-1.825H33.276v-2A1.069,1.069,0,0,0,31.439.326l-4.56,4.709a1.069,1.069,0,0,0-.3.744V8.254A16.009,16.009,0,1,0,28.228,9.9H30.7A1.069,1.069,0,0,0,31.46,9.592Zm-5.539,20.69a13.938,13.938,0,1,1-.784-20.448L23.62,11.352a11.74,11.74,0,1,0,1.511,1.512l1.518-1.518A13.964,13.964,0,0,1,25.921,30.282ZM16.1,17.181A3.2,3.2,0,1,0,18.991,19l1.564-1.564a5.335,5.335,0,1,1-1.511-1.512L17.48,17.492A3.2,3.2,0,0,0,16.1,17.181Zm1.068,3.205A1.068,1.068,0,1,1,16.1,19.318,1.064,1.064,0,0,1,17.164,20.386Zm3.413-5.992a7.471,7.471,0,1,0,1.511,1.512l1.523-1.523A9.6,9.6,0,1,1,22.1,12.871Zm8.138-6.627V6.211l2.423-2.5v.424A1.069,1.069,0,0,0,32.207,5.2h.624L30.263,7.767Z" transform="translate(0 0)" fill="#f1c40e"/>
    </g>
  </g>
</svg>
