<svg xmlns="http://www.w3.org/2000/svg" xmlns:xlink="http://www.w3.org/1999/xlink" width="104.666" height="104.664" viewBox="0 0 104.666 104.664">
  <defs>
    <clipPath id="clip-path">
      <path id="Path_22" data-name="Path 22" d="M134.1,212.6A52.333,52.333,0,1,1,81.77,160.268,52.332,52.332,0,0,1,134.1,212.6Z" fill="none"/>
    </clipPath>
  </defs>
  <g id="Group_6" data-name="Group 6" transform="translate(-29.436 -160.268)" clip-path="url(#clip-path)">
    <g id="Group_5" data-name="Group 5">
      <g id="Group_1" data-name="Group 1">
        <rect id="Rectangle_1" data-name="Rectangle 1" width="16.884" height="8.882" transform="translate(73.297 229.255)" fill="#eead8b"/>
        <path id="Path_1" data-name="Path 1" d="M78.019,236.064a16.1,16.1,0,0,0,7.445-2.088,13.547,13.547,0,0,0,4.088-3.51c.2-.268.424-.572.629-.9v-.315H73.3V235.9A38.063,38.063,0,0,0,78.019,236.064Z" fill="#ccc" style="mix-blend-mode: multiply;isolation: isolate"/>
      </g>
      <path id="Path_2" data-name="Path 2" d="M81.745,179.4v0h-.013v0c-10.789.3-19.022,4.737-18.982,20.021.022,9.062.85,11.736,3.49,22.076,1.827,7.156,11.547,10.93,15.252,11.175.079-.005.162-.013.246-.022.085.009.168.017.246.022,3.706-.245,13.426-4.019,15.253-11.175,2.641-10.34,3.468-13.014,3.491-22.076C100.767,184.133,92.533,179.7,81.745,179.4Z" fill="#eead8b"/>
      <path id="Path_3" data-name="Path 3" d="M72.953,229.545a20.131,20.131,0,0,0,8.506,3.123c.079-.005.162-.013.246-.022.084.009.167.017.246.022a21.574,21.574,0,0,0,8.766-3.264S83.285,232.951,72.953,229.545Z" fill="#702f09"/>
      <path id="Path_4" data-name="Path 4" d="M98.663,205.705l-1.179,9.025c4.631,2.039,5.355-8.582,5.355-8.582C101.769,203.5,98.663,205.705,98.663,205.705Z" fill="#eead8b"/>
      <path id="Path_5" data-name="Path 5" d="M60.071,206.148s.725,10.621,5.355,8.582l-1.178-9.025S61.142,203.5,60.071,206.148Z" fill="#eead8b"/>
      <path id="Path_6" data-name="Path 6" d="M90.327,238.137l22.805,5.936s7.781,1.193,9.766,8.185l3.4,12.674H37.237l3.4-12.674c1.985-6.992,9.766-8.185,9.766-8.185l22.739-5.936Z" fill="#eead8b"/>
      <path id="Path_7" data-name="Path 7" d="M37.237,264.932l3.4-12.674c1.985-6.992,9.766-8.185,9.766-8.185l22.739-5.936H90.327l22.805,5.936s7.781,1.193,9.766,8.185l3.4,12.674" fill="#fff"/>
      <g id="Group_2" data-name="Group 2">
        <path id="Path_8" data-name="Path 8" d="M83.236,238.137H80.3l-4.176,6.584,3.735,4.2h3.816l3.734-4.2Z" fill="#760e18"/>
        <path id="Path_9" data-name="Path 9" d="M83.847,248.123A11.77,11.77,0,0,1,81,238.137h-.7l-4.176,6.584,3.735,4.2h3.816l.458-.517C84.036,248.314,83.938,248.22,83.847,248.123Z" fill="#b3b3b3" style="mix-blend-mode: multiply;isolation: isolate"/>
      </g>
      <g id="Group_3" data-name="Group 3">
        <path id="Path_10" data-name="Path 10" d="M90.209,233.98l-8.5,4.441,5.6,8.439,10.175-6.123Z" fill="#b3b3b3" style="mix-blend-mode: multiply;isolation: isolate"/>
        <path id="Path_11" data-name="Path 11" d="M90.209,233.98l-8.5,4.441,5.706,7.319,9.514-5.51Z" fill="#fff"/>
      </g>
      <g id="Group_4" data-name="Group 4">
        <path id="Path_12" data-name="Path 12" d="M73.252,233.7l8.453,4.44-5.553,8.44-10.175-6.123Z" fill="#b3b3b3" style="mix-blend-mode: multiply;isolation: isolate"/>
        <path id="Path_13" data-name="Path 13" d="M73.252,233.7l8.5,4.44-5.706,7.319-9.515-5.509Z" fill="#fff"/>
      </g>
      <path id="Path_14" data-name="Path 14" d="M66.645,239.846l-16.238,4.227s-7.781,1.193-9.766,8.185l-3.4,12.674H126.3l-3.4-12.674c-1.985-6.992-9.766-8.185-9.766-8.185l-17-4.878L81.705,264.3Z" fill="#070709"/>
      <path id="Path_15" data-name="Path 15" d="M79.8,248.925,77.764,257.9l3.941,6.4,3.678-6.4-1.771-8.974Z" fill="#760e18"/>
      <path id="Path_16" data-name="Path 16" d="M66.645,239.846l-7.692,2,4.338,1.684-2.678,3.046,15.515,18.355h6.027Z"/>
      <path id="Path_17" data-name="Path 17" d="M96.129,239.2l8.462,2.428-4.337,1.908,2.677,3.046L87.417,264.932H81.39Z"/>
      <path id="Path_18" data-name="Path 18" d="M98.677,215.894l-1.4.909,1.4-14.242-2.317-4.924s2.13-10.958-13.64-11.282c0,0-13.26-.736-14.978,5.28,0,0-7.191-11.786,12.18-14.61,0,0,19.372-1.6,21.459,10.19,0,0,1.528,12.955-1.019,18.533Z" fill="#702f09"/>
      <path id="Path_19" data-name="Path 19" d="M61.934,193.769s.194,4.788,1.066,11.979l1.686,10.146,1.4.909-1.4-14.242,2.405-5.683.474-4.611.177-.632v-7.811C62.131,184.561,61.934,193.769,61.934,193.769Z" fill="#702f09"/>
      <path id="Path_20" data-name="Path 20" d="M68.656,184.745c.351.525,1.078,1.175,1.289,1.581.076-.724-.321-1.34-.266-2.033a35.673,35.673,0,0,0,3.472,1.085,7.5,7.5,0,0,0-.343-1.907c1.777-.151,2.933,1.413,4.586,1.447a15.82,15.82,0,0,0-.442-2.46c1.757-.069,3.324,1.54,5.046,1.353a17.967,17.967,0,0,0-.418-2c1.608-.093,4.158,1.956,5.387,2.9a16.691,16.691,0,0,1,.116-2.356c2.272.865,4.1,2.615,6.145,3.86.068-.7-.187-1.341-.164-2.025,2.391,1.165,3.721,4.114,5.411,6.051.013-.561-.443-.987-.427-1.539.433.576.84,1.217,1.284,1.808A22.468,22.468,0,0,1,97,185.875c.249.543.485,1.077.761,1.6-.97-1.413-2.634-2.776-3.074-4.482a1.272,1.272,0,0,0,.4,1.165,10.784,10.784,0,0,0-3.688-3.049c.069.6.7.991.813,1.577-.914-.517-1.9-1.719-2.924-1.9.057.155.005.459.07.624-1.159.2-2.607-.909-3.567-1.452a4.257,4.257,0,0,0,.247,1.084c-.875-.219-1.757-.965-2.667-1.084a1.3,1.3,0,0,0,.005.9c-1.27.056-2.52-.453-3.757-.342.049.142.007.488.052.6A4.893,4.893,0,0,0,76.8,180.6c-.626.242-.491.251-.416,1-1.059.061-2.139-.014-3.2.019a6.744,6.744,0,0,0-.118.9c-.76.07-1.514-.129-2.277-.066,0,.183-.133.335-.122.523-.754.039-2.042-.252-1.841.923-.1-.023-.23-.034-.341-.071-.09.389.012.716.354.819" fill="#84380b"/>
      <path id="Path_21" data-name="Path 21" d="M66.17,185.113c.136,1.293.9,2.283.828,3.684-.056,1.135-.416,3.088-1.365,3.791.009,2.977.157,7.723-1.882,10.172a14.183,14.183,0,0,0-.982-2.975,2.935,2.935,0,0,0,.993.418c-.175-1.309-1.029-3.043-.8-4.38.468.424.883.844,1.354,1.232.088-.862-.672-1.567-.888-2.376a13.071,13.071,0,0,1-.557-3.669,10.959,10.959,0,0,1,1.625,1.462,15.976,15.976,0,0,1-.064-2.834c.377.071.685.333,1.082.438.122-.658-.393-1.218-.539-1.837a5.413,5.413,0,0,1-.078-1.528,12.007,12.007,0,0,1,1.166.787c-.247-.523-.67-1.832-.167-2.293" fill="#84380b"/>
    </g>
  </g>
</svg>
