<svg xmlns="http://www.w3.org/2000/svg" width="56.753" height="55.892" viewBox="0 0 56.753 55.892">
  <g id="Group_7" data-name="Group 7" transform="translate(-340.731 -32.648)">
    <path id="Path_55" data-name="Path 55" d="M391.406,106.962h-46.15a4.03,4.03,0,0,1-4.026-4.026V67.994a.98.98,0,0,1,1.959,0v34.943A2.068,2.068,0,0,0,345.257,105h45.17V94.191a.98.98,0,0,1,1.959,0v11.791A.979.979,0,0,1,391.406,106.962Z" transform="translate(0 -18.922)" stroke="#000" stroke-width="1"/>
    <path id="Path_56" data-name="Path 56" d="M391.406,80.441a.979.979,0,0,1-.98-.98v-11.3h-45.17a4.026,4.026,0,1,1,0-8.051h13.306a.98.98,0,1,1,0,1.959H345.257a2.066,2.066,0,1,0,0,4.133h45.46a1.671,1.671,0,0,1,1.669,1.669v11.59A.979.979,0,0,1,391.406,80.441Z" transform="translate(0 -15.065)" stroke="#000" stroke-width="1"/>
    <path id="Path_57" data-name="Path 57" d="M441.725,98.967h-4.6a.98.98,0,1,1,0-1.959h3.618V62.47a.4.4,0,0,0-.4-.4H424.039a.98.98,0,1,1,0-1.959h16.307A2.361,2.361,0,0,1,442.7,62.47V97.988A.98.98,0,0,1,441.725,98.967Z" transform="translate(-45.721 -15.065)" stroke="#000" stroke-width="1"/>
    <path id="Path_58" data-name="Path 58" d="M440.614,114.577H427.487a6.415,6.415,0,1,1,0-12.83h13.127a.98.98,0,0,1,.98.98V113.6A.98.98,0,0,1,440.614,114.577Zm-13.127-10.871a4.456,4.456,0,1,0,0,8.912h12.147v-8.912Z" transform="translate(-44.61 -38.329)" stroke="#000" stroke-width="1"/>
    <path id="Path_59" data-name="Path 59" d="M432.145,115.422a3.242,3.242,0,1,1,3.242-3.242A3.246,3.246,0,0,1,432.145,115.422Zm0-4.526a1.283,1.283,0,1,0,1.283,1.283A1.285,1.285,0,0,0,432.145,110.9Z" transform="translate(-48.986 -42.347)" stroke="#000" stroke-width="1"/>
    <path id="Path_60" data-name="Path 60" d="M440.614,114.577H427.487a6.415,6.415,0,1,1,0-12.83h13.127a.98.98,0,0,1,.98.98V113.6A.98.98,0,0,1,440.614,114.577Zm-13.127-10.871a4.456,4.456,0,1,0,0,8.912h12.147v-8.912Z" transform="translate(-44.61 -38.329)" stroke="#000" stroke-width="1"/>
    <path id="Path_61" data-name="Path 61" d="M399.024,53.1H379.268a.98.98,0,0,1-.98-.98V35.842a2.7,2.7,0,0,1,2.694-2.694h16.327A2.7,2.7,0,0,1,400,35.842V52.117A.98.98,0,0,1,399.024,53.1Zm-18.776-1.959h17.8v-15.3a.736.736,0,0,0-.735-.735H380.982a.736.736,0,0,0-.735.735Z" transform="translate(-20.705)" stroke="#000" stroke-width="1"/>
    <path id="Path_62" data-name="Path 62" d="M394.135,53.1h-5.061a.979.979,0,0,1-.98-.98V34.128a.979.979,0,0,1,.98-.98h5.061a.979.979,0,0,1,.98.98v17.99A.979.979,0,0,1,394.135,53.1Zm-4.082-1.959h3.1V35.107h-3.1Z" transform="translate(-26.184)" stroke="#000" stroke-width="1"/>
    <path id="Path_63" data-name="Path 63" d="M408.561,54.533a.98.98,0,0,1-.98-.98V48a.98.98,0,0,1,1.959,0v5.551A.979.979,0,0,1,408.561,54.533Z" transform="translate(-37.073 -7.753)" stroke="#000" stroke-width="1"/>
    <path id="Path_64" data-name="Path 64" d="M366.148,89.667h-7.293a.98.98,0,0,1,0-1.959h7.293a.98.98,0,0,1,0,1.959Z" transform="translate(-9.3 -30.485)" stroke="#000" stroke-width="1"/>
    <path id="Path_65" data-name="Path 65" d="M425.6,89.667h-2.612a.98.98,0,0,1,0-1.959H425.6a.98.98,0,1,1,0,1.959Z" transform="translate(-45.136 -30.485)" stroke="#000" stroke-width="1"/>
    <path id="Path_66" data-name="Path 66" d="M401.331,89.667H395.2a.98.98,0,1,1,0-1.959h6.131a.98.98,0,0,1,0,1.959Z" transform="translate(-29.607 -30.485)" stroke="#000" stroke-width="1"/>
    <path id="Path_67" data-name="Path 67" d="M378,89.667h-2.613a.98.98,0,0,1,0-1.959H378a.98.98,0,0,1,0,1.959Z" transform="translate(-18.535 -30.485)" stroke="#000" stroke-width="1"/>
    <path id="Path_68" data-name="Path 68" d="M439.85,89.667H428.912a.98.98,0,1,1,0-1.959H439.85a.98.98,0,1,1,0,1.959Z" transform="translate(-48.444 -30.485)" stroke="#000" stroke-width="1"/>
    <path id="Path_69" data-name="Path 69" d="M400.707,142.382H358.856a.98.98,0,0,1,0-1.959h41.851a.98.98,0,1,1,0,1.959Z" transform="translate(-9.3 -59.939)" stroke="#000" stroke-width="1"/>
  </g>
</svg>
