<svg xmlns="http://www.w3.org/2000/svg" width="415.965" height="399.115" viewBox="0 0 415.965 399.115">
  <g id="Group_2678" data-name="Group 2678" transform="translate(-151.018 -436.442)">
    <g id="Group_2681" data-name="Group 2681" transform="translate(53.209 51.054)">
      <g id="Group_1" data-name="Group 1" transform="translate(97.808 385.389)">
        <path id="Path_8" data-name="Path 8" d="M312.772,57.362,421,118.154a69.874,69.874,0,0,1,26.624,94.861L335.8,412.1a69.873,69.873,0,0,1-94.861,26.623l-108.23-60.792a69.873,69.873,0,0,1-26.624-94.861L217.909,83.987A69.874,69.874,0,0,1,312.772,57.362Z" transform="translate(-40.535 -48.487)" fill="#e4a300" fill-rule="evenodd"/>
        <g id="Group_2" data-name="Group 2" transform="translate(268.376 58.054)">
          <path id="Path_9" data-name="Path 9" d="M340.521,107.4a1.178,1.178,0,0,1-.108,1.241c-.56.917-1.091,1.853-1.635,2.781l-.243.415-1.4-.822c.336-.571.661-1.128.986-1.684.3-.505.608-1,.882-1.518a1.156,1.156,0,0,1,1.029-.7Z" transform="translate(-311.239 -107.11)" fill="#1c1c1c"/>
          <path id="Path_10" data-name="Path 10" d="M361.687,119.792a1.174,1.174,0,0,1-.107,1.24c-.561.918-1.092,1.853-1.635,2.781l-.244.416-1.4-.822.986-1.684c.3-.505.607-1,.882-1.517a1.154,1.154,0,0,1,1.028-.7Z" transform="translate(-311.444 -107.23)" fill="#1c1c1c"/>
          <path id="Path_11" data-name="Path 11" d="M323.667,111.392a1.18,1.18,0,0,1,1.241.107c.917.562,1.852,1.092,2.78,1.636l.416.243-.821,1.4-1.685-.985c-.505-.3-1-.607-1.517-.882a1.16,1.16,0,0,1-.7-1.029Z" transform="translate(-311.105 -107.15)" fill="#1c1c1c"/>
          <path id="Path_12" data-name="Path 12" d="M311.273,132.559a1.176,1.176,0,0,1,1.24.107c.917.561,1.853,1.092,2.781,1.635l.415.244-.821,1.4-1.685-.986c-.5-.3-1-.607-1.517-.881a1.164,1.164,0,0,1-.7-1.029Z" transform="translate(-310.985 -107.356)" fill="#1c1c1c"/>
          <path id="Path_13" data-name="Path 13" d="M344.738,109.867a1.18,1.18,0,0,1-.1,1.278c-.631,1.032-1.229,2.084-1.857,3.157l-1.4-.819c.483-.824.959-1.635,1.433-2.447.151-.257.323-.507.45-.776a1.113,1.113,0,0,1,.982-.681Z" transform="translate(-311.28 -107.134)" fill="#1c1c1c"/>
          <path id="Path_14" data-name="Path 14" d="M357.471,117.323a1.212,1.212,0,0,1-.135,1.232c-.564.91-1.089,1.845-1.632,2.768-.077.133-.167.257-.263.4l-1.377-.806.447-.764c.469-.8.956-1.594,1.4-2.409a1.17,1.17,0,0,1,1.067-.713Z" transform="translate(-311.403 -107.206)" fill="#1c1c1c"/>
          <path id="Path_15" data-name="Path 15" d="M321.2,115.609a1.21,1.21,0,0,1,1.232.134c.91.565,1.845,1.089,2.768,1.632.133.078.257.167.405.263l-.807,1.377-.763-.447c-.8-.469-1.6-.955-2.409-1.4a1.171,1.171,0,0,1-.713-1.066Z" transform="translate(-311.081 -107.191)" fill="#1c1c1c"/>
          <path id="Path_16" data-name="Path 16" d="M313.742,128.342a1.174,1.174,0,0,1,1.278.1c1.032.631,2.084,1.229,3.157,1.858l-.818,1.4-2.447-1.433c-.258-.152-.507-.322-.776-.449a1.116,1.116,0,0,1-.682-.982Z" transform="translate(-311.009 -107.315)" fill="#1c1c1c"/>
          <path id="Path_17" data-name="Path 17" d="M348.954,112.337a1.1,1.1,0,0,1-.058,1.236c-.642,1.048-1.249,2.117-1.887,3.207l-1.4-.817L347,113.6c.168-.286.355-.562.5-.861a1.006,1.006,0,0,1,1.05-.641Z" transform="translate(-311.321 -107.158)" fill="#1c1c1c"/>
          <path id="Path_18" data-name="Path 18" d="M353.171,114.806a1.021,1.021,0,0,1-.019,1.189c-.651,1.063-1.267,2.147-1.915,3.255l-1.4-.817.872-1.49c.336-.572.689-1.134,1-1.72a1.077,1.077,0,0,1,1.049-.657Z" transform="translate(-311.362 -107.182)" fill="#1c1c1c"/>
          <path id="Path_19" data-name="Path 19" d="M318.681,119.907a1.021,1.021,0,0,1,1.19.02c1.063.65,2.146,1.266,3.254,1.914l-.817,1.4-1.49-.872c-.571-.335-1.134-.689-1.719-1a1.081,1.081,0,0,1-.658-1.049Z" transform="translate(-311.057 -107.232)" fill="#1c1c1c"/>
          <path id="Path_20" data-name="Path 20" d="M316.212,124.124a1.1,1.1,0,0,1,1.236.058c1.048.642,2.117,1.249,3.207,1.887l-.817,1.4-2.2-1.288c-.341-.2-.67-.419-1.024-.593a1.012,1.012,0,0,1-.642-1.051Z" transform="translate(-311.033 -107.273)" fill="#1c1c1c"/>
          <path id="Path_21" data-name="Path 21" d="M353.649,143.411q-3.381,5.772-6.754,11.548a1.818,1.818,0,0,1-1.227.94c-1.154.272-2.3.582-3.442.9a1.552,1.552,0,0,1-1.27-.168q-11.682-6.849-23.373-13.687a1.545,1.545,0,0,1-.77-1.021q-.446-1.8-.936-3.58a1.545,1.545,0,0,1,.175-1.267q6.851-11.683,13.688-23.373a1.5,1.5,0,0,1,.98-.752q1.818-.453,3.625-.949a1.545,1.545,0,0,1,1.266.185q11.662,6.838,23.332,13.662a1.6,1.6,0,0,1,.8,1.056c.288,1.167.588,2.331.913,3.488a1.685,1.685,0,0,1-.2,1.4Q357.045,137.594,353.649,143.411Zm-23.56,4.97c3.233,1.893,6.5,3.731,9.684,5.707a4.609,4.609,0,0,0,4.248.59,3.627,3.627,0,0,0,2.131-1.653c3.917-6.721,7.821-13.449,11.81-20.127a4.687,4.687,0,0,0,.591-4.247,3.628,3.628,0,0,0-1.654-2.131c-6.721-3.916-13.449-7.821-20.127-11.81a4.665,4.665,0,0,0-4.245-.589,3.588,3.588,0,0,0-2.108,1.61q-5.863,10.061-11.764,20.1c-1.307,2.225-1.19,2.109-.617,4.4a3.044,3.044,0,0,0,1.528,2C323.082,144.266,326.583,146.328,330.089,148.381Z" transform="translate(-311.032 -107.157)" fill="#1c1c1c"/>
          <path id="Path_22" data-name="Path 22" d="M361.238,134.643l.813-1.388.563.329c.94.552,1.886,1.091,2.816,1.657.6.363.679,1.068.145,1.381a.953.953,0,0,1-.786.075C363.6,136.051,362.441,135.347,361.238,134.643Z" transform="translate(-311.473 -107.364)" fill="#1c1c1c"/>
          <path id="Path_23" data-name="Path 23" d="M348.861,155.788l.8-1.364,1.557.911c.6.352,1.2.7,1.8,1.056a.818.818,0,1,1-.815,1.4c-1.041-.6-2.073-1.209-3.107-1.817A2.258,2.258,0,0,1,348.861,155.788Z" transform="translate(-311.353 -107.569)" fill="#1c1c1c"/>
          <path id="Path_24" data-name="Path 24" d="M317.251,144.966l1.4.821-.259.445c-.559.953-1.113,1.909-1.678,2.858-.324.545-.787.705-1.215.443s-.5-.716-.191-1.246C315.948,147.182,316.6,146.085,317.251,144.966Z" transform="translate(-311.025 -107.477)" fill="#1c1c1c"/>
          <path id="Path_25" data-name="Path 25" d="M338.421,157.355l1.354.792a1.811,1.811,0,0,1-.112.3c-.6,1.024-1.176,2.057-1.806,3.057a1.215,1.215,0,0,1-.722.518c-.652.108-1.053-.606-.711-1.238.376-.693.791-1.366,1.189-2.047C337.875,158.288,338.137,157.841,338.421,157.355Z" transform="translate(-311.231 -107.598)" fill="#1c1c1c"/>
          <path id="Path_26" data-name="Path 26" d="M358.756,138.9l.819-1.4,2.5,1.465c.313.183.632.359.937.555a.791.791,0,0,1,.326,1.1.811.811,0,0,1-1.154.281c-.785-.439-1.556-.9-2.333-1.359Z" transform="translate(-311.449 -107.405)" fill="#1c1c1c"/>
          <path id="Path_27" data-name="Path 27" d="M351.323,151.573l.8-1.372c.143.074.277.14.407.215,1,.581,1.994,1.156,2.981,1.751.613.369.675,1.111.111,1.415a.92.92,0,0,1-.748.049C353.69,152.98,352.531,152.28,351.323,151.573Z" transform="translate(-311.376 -107.528)" fill="#1c1c1c"/>
          <path id="Path_28" data-name="Path 28" d="M322.882,148.269c-.7,1.188-1.359,2.352-2.057,3.495a.783.783,0,0,1-1.085.252.746.746,0,0,1-.318-.984c.672-1.191,1.376-2.366,2.082-3.57Z" transform="translate(-311.066 -107.502)" fill="#1c1c1c"/>
          <path id="Path_29" data-name="Path 29" d="M335.568,155.71c-.682,1.166-1.338,2.3-2.01,3.423a.785.785,0,0,1-1.1.332.8.8,0,0,1-.306-1.109c.651-1.153,1.332-2.288,2.019-3.462Z" transform="translate(-311.189 -107.574)" fill="#1c1c1c"/>
          <path id="Path_30" data-name="Path 30" d="M357.1,141.737c1.189.7,2.351,1.365,3.5,2.056a.8.8,0,0,1-.738,1.4c-1.2-.667-2.369-1.375-3.571-2.079Z" transform="translate(-311.425 -107.446)" fill="#1c1c1c"/>
          <path id="Path_31" data-name="Path 31" d="M353.806,147.356l.8-1.36a2.4,2.4,0,0,1,.287.123q1.536.894,3.067,1.8a.82.82,0,1,1-.826,1.386C356.027,148.66,354.928,148.012,353.806,147.356Z" transform="translate(-311.4 -107.487)" fill="#1c1c1c"/>
          <path id="Path_32" data-name="Path 32" d="M325.726,149.927l1.4.817-.524.894c-.479.818-.955,1.639-1.439,2.453a.837.837,0,0,1-1.193.4.821.821,0,0,1-.2-1.2C324.4,152.18,325.052,151.078,325.726,149.927Z" transform="translate(-311.107 -107.525)" fill="#1c1c1c"/>
          <path id="Path_33" data-name="Path 33" d="M329.955,152.4l1.392.816-.694,1.184c-.439.751-.871,1.5-1.32,2.248a.8.8,0,1,1-1.41-.767C328.578,154.731,329.258,153.593,329.955,152.4Z" transform="translate(-311.148 -107.549)" fill="#1c1c1c"/>
          <path id="Path_34" data-name="Path 34" d="M325.751,127.021q3.057-5.218,6.105-10.44a1.58,1.58,0,0,1,1.076-.83c1.965-.455,1.283-.605,3.075.442q10.076,5.884,20.142,11.781a1.633,1.633,0,0,1,.85,1.117c.444,1.9.582,1.274-.421,2.99q-5.885,10.074-11.781,20.143a1.729,1.729,0,0,1-1.181.91c-1.855.428-1.249.567-2.946-.425q-10.094-5.9-20.182-11.805a1.679,1.679,0,0,1-.875-1.153c-.432-1.872-.573-1.249.414-2.946Q322.876,131.905,325.751,127.021Zm16.5,5.968c.147-.156.261-.284.38-.406,1.645-1.682,3.295-3.357,4.934-5.044a1.77,1.77,0,0,0-.323-2.866,1.921,1.921,0,0,0-1.775-.018q-5.184,2.1-10.375,4.185c-1.5.6-2.992,1.2-4.484,1.811a1.524,1.524,0,0,0-1.018,1.415,1.544,1.544,0,0,0,.822,1.492c.287.167.573.337.86.5l3.093,1.811c-.15.161-.262.29-.382.413q-2.449,2.506-4.9,5.009a1.84,1.84,0,0,0-.6,1.576,1.771,1.771,0,0,0,2.486,1.406c1.589-.623,3.168-1.273,4.751-1.91q5.057-2.038,10.114-4.074a1.713,1.713,0,0,0,1.121-1.071,1.581,1.581,0,0,0-.739-1.911C344.907,134.538,343.6,133.778,342.249,132.989Z" transform="translate(-311.065 -107.19)" fill="#1c1c1c"/>
          <rect id="Rectangle_1" data-name="Rectangle 1" width="22.093" height="26.737" transform="matrix(0.885, 0.466, -0.466, 0.885, 23.645, 9.983)" fill="#1c1c1c"/>
        </g>
        <path id="Path_35" data-name="Path 35" d="M116.1,342.765c-58.6,8.587-107.974,21.328-32.554,32.382S253.532,409.08,291.9,392.964l152.685-64.14c12.823-5.386,10.5-11.984-2.585-14.663-19.614-4.014-42.233-8.124-45.923-8.326C396.075,305.835,129.123,332.416,116.1,342.765Z" transform="translate(-40.031 -50.984)" fill-rule="evenodd"/>
        <path id="Path_36" data-name="Path 36" d="M287.089,290.109l-26.857-1.616c-13.334-.8-25.331,18.82-26.794,43.829s8.159,45.933,21.494,46.735l26.858,1.617c13.335.8,25.332-18.822,26.8-43.83S300.425,290.912,287.089,290.109Z" transform="translate(-41.855 -50.816)" fill-rule="evenodd"/>
        <path id="Path_37" data-name="Path 37" d="M420.667,269.374c-5.972-.359-8.86-.532-14.725-.886-7.311-.44-13.889,13.315-14.692,30.722s4.473,31.877,11.785,32.316l14.727.886c7.311.441,13.888-13.316,14.691-30.722S427.978,269.814,420.667,269.374Z" transform="translate(-43.387 -50.622)" fill-rule="evenodd"/>
        <path id="Path_38" data-name="Path 38" d="M122.61,300.252l-14.725-3.225c-7.311-1.6-13.891,11.107-14.692,28.388S97.668,358,104.978,359.6c5.971,1.308,8.862,1.942,14.727,3.224,7.311,1.6,13.888-11.106,14.691-28.387S129.921,301.854,122.61,300.252Z" transform="translate(-40.495 -50.897)" fill-rule="evenodd"/>
        <path id="Path_39" data-name="Path 39" d="M42.283,318.293c-.725-8.246-1.005-18.443,1.027-25.9A41.923,41.923,0,0,1,51.4,277a62.906,62.906,0,0,1,3.371-14.5c1.981-5.478,4.948-10.85,9.668-14.429a36.862,36.862,0,0,1,8.659-4.381c3.779-1.508,7.614-2.867,11.459-4.2,10.232-3.539,20.552-6.817,30.885-10.05q20.143-6.3,40.379-12.284c36.271-29.741,61.737-40.749,109.633-41.266,36.993-.4,88.1,2.578,120.041,22.63,9.377,5.887,19.339,13.53,26.67,21.843a46.721,46.721,0,0,0,7.551,6.447c3.023,2.191,6.172,4.219,9.383,6.13,1.805,1.076,3.646,2.191,5.544,3.094,7.169,3.418,8.8,10.859,9.887,17.941.831,5.436,1.337,10.914,1.8,16.392.594,7.067.2,14.261,1.022,21.413,1.765,15.336-5.764,20.723-18.009,21l-2.709-43.688v-9.97L74.876,284.935c-12.622-2.866-14.091,52.2-16.3,54.412C40.976,338.3,37.659,324.794,42.283,318.293Z" transform="translate(-39.984 -49.723)" fill="#fff" fill-rule="evenodd"/>
        <path id="Path_40" data-name="Path 40" d="M159.229,223.549c35.049-28.928,58.862-40.059,106.35-40.572,34.652-.373,85.505,2.263,116.236,21.556,8.528,5.357,18.406,12.911,25.135,20.543a54.246,54.246,0,0,0,8.7,7.489c3.193,2.313,6.53,4.464,9.911,6.477,1.942,1.158,4.076,2.428,6.113,3.4,4.495,2.145,5.318,8.394,5.97,12.668.807,5.265,1.3,10.633,1.742,15.92.408,4.846.748,9.694,1.076,14.541.179,2.657.282,5.475.587,8.118a18.341,18.341,0,0,1-2.789,12.07l-.437.617-16.5,13.544V292.733a57.389,57.389,0,0,0-1.036-11.687,20.09,20.09,0,0,0-1.6-4.76,7.462,7.462,0,0,0-.731.41c-3.012,1.908-5.555,12.826-6.244,16.259a158.4,158.4,0,0,0-2.787,22.41l-.2,3.913L299.721,356.566l1.186-10.2c1.379-11.845,2.217-34.571-2.3-45.948-1.315-3.3-3.655-6.858-7.2-8.048-7.941-2.675-15.5,7.547-18.592,13.075a57.162,57.162,0,0,0-5.181,13.372c-2.409,9.166-3.264,18.866-3.716,28.424-.172,3.63-.255,7.285-.5,10.9-.2,3.006-.456,6.617-2.585,8.833-4.843,5.033-22.827,4.618-29.374,4.479-10.88-.231-21.877-1.165-32.749-2.36-16.424-1.806-32.852-4.3-49.191-7.116-14.679-2.53-89.658-15.291-101.059-27.377-4.522-4.794-2.51-10.266,1.131-14.022-.864-8.235-1.33-19.432.533-26.276a34.429,34.429,0,0,1,8.2-14.38v-.083c0-4.354,1.653-10.918,3.088-14.888,1.5-4.157,3.762-8.534,7.308-11.222a32.673,32.673,0,0,1,7.022-3.456c3.666-1.464,7.413-2.79,11.15-4.083,10.151-3.512,20.422-6.775,30.687-9.984Q138.347,229.717,159.229,223.549Z" transform="translate(-40.037 -49.792)" fill-rule="evenodd"/>
        <path id="Path_41" data-name="Path 41" d="M162.48,229.2c-19.8,5.862-83.829,25.068-89.8,29.592s-8.139,18.772-8.139,21.484v2.713a26.867,26.867,0,0,0-8.411,13.331c-2.364,8.685,0,27.128,0,27.128s-6.1,4.11-3.255,7.128,20.076,12.061,97.395,25.4,103.362,9.476,106.075,6.654-1.356-38.06,11.122-60.371,30.386-20.146,36.9-3.747S307.08,347.5,307.08,347.5l95.767-32.758s-2.007-16.528.851-30.3c1.332-6.42,5-13.831,8.1-15.8,5.936-3.765,14.494-.012,16.844,5.694,4.477,10.87,3.338,18.294,3.411,28.914l1.178-1.2a12.3,12.3,0,0,0,1.762-7.966c-.542-4.712-2.372-44.5-5.627-46.051s-19.532-10.671-26.857-18.98c-5.006-5.677-19-18.356-37.5-26.772-23.321-10.615-74.751-13.344-98.937-13.084C220.307,189.7,197.776,199.921,162.48,229.2Z" transform="translate(-40.098 -49.852)" fill="#e4a300" fill-rule="evenodd"/>
        <path id="Path_42" data-name="Path 42" d="M83.662,274.9c-.67.726-1.443,5.023-1.481,10.268a4.9,4.9,0,0,0,3.864,4.765c20.07,5.386,57.393,10.177,80.756,12.243,4.149.366,8.183,1.184,10.135-2.983,2.02-4.314,2.109-7.652-.32-10.028-1.743-1.7-30.834-5.221-54.879-8.576-21.24-2.966-37.856-5.925-38.074-5.69Zm-2.131,16.431c-.056-.456,17.936,7.326,43.6,9.787,10.415,1,31.119,4.651,44.674,3.725,4.626-.316,4.606-.644,1.3,3.413-7.991,9.8-16.528,10.309-35.355,8.375-20.313-2.088-33.851-5.178-45.309-9.358C85.218,305.366,82.364,297.922,81.531,291.329Z" transform="translate(-40.383 -50.684)" fill="#e4a300" fill-rule="evenodd"/>
        <path id="Path_43" data-name="Path 43" d="M55.363,301.456c-.932,9.331.77,22.615.77,22.615s-6.1,4.11-3.255,7.128,20.076,12.061,97.395,25.4,103.362,9.476,106.075,6.654-1.356-38.06,11.122-60.371,30.386-20.146,36.9-3.747,2.713,48.994,2.713,48.994l95.767-32.758s-1.027-37.406,8.952-43.248c9.81-5.744,14.418,1.9,16.842,10.821,2.825,10.4,1.286,23.481,1.539,23.2l3.052-3.454a12.3,12.3,0,0,0,1.762-7.966c-.432-3.751-1.68-29.75-3.814-40.966a40.241,40.241,0,0,1-1.67,5.77c-2.171,5.565-33.1,7.773-33.1,7.773l-91.154,21.1s-6.241-10.142-18.177-8.96-20.347,19.122-27.4,32.533c-5.557,10.565-20.706,16.679-30.338,18.062,9.952,7.229,18.524,28.29,13.514,29.571-5.155,1.317-35.268-1.309-37.709-4.17s-5.7-22.316-7.325-22.957-25.5-3.434-25.5-3.434a172.757,172.757,0,0,1,18.067-2.972c-12.213.2-23.248,1.376-24.845,2.209-3.255,1.7-16.82-1.012-16.82-1.012s-68.636-9.827-72.163-12.482C73.167,312.23,59.979,303.312,55.363,301.456Z" transform="translate(-40.098 -50.479)" fill="#e4a300" fill-rule="evenodd"/>
        <path id="Path_44" data-name="Path 44" d="M55.763,299.163c-1.675,9.192-.687,24.129-.687,24.129.355,1.517,3.642,3.036,5.821,3.527,2.288.517,4.561,1.152,5.237-.552a55.177,55.177,0,0,0,2.85-12.4C69.511,308.5,69.127,307.105,55.763,299.163Z" transform="translate(-40.123 -50.919)" fill-rule="evenodd"/>
        <path id="Path_45" data-name="Path 45" d="M72.8,259.469c-5.969,4.525-8.139,18.772-8.139,21.484v2.713s-.121.094-.335.277c.878.922,7.055,4.536,10.423,6.221a1.462,1.462,0,0,0,1.97-.975c.506-4.676.087-13.458.087-14.812C76.808,273.366,74.506,258.178,72.8,259.469Z" transform="translate(-40.216 -50.534)" fill-rule="evenodd"/>
        <g id="Group_2680" data-name="Group 2680" transform="translate(122.468 144.791)">
          <g id="Group_2679" data-name="Group 2679">
            <path id="Path_46" data-name="Path 46" d="M222.54,194.7c-20.383,5.756-37.239,16.531-58.892,34.482L308.64,242.116s16.939-40.972,15.735-42.731S253.523,195.614,222.54,194.7Z" transform="translate(-163.648 -194.697)" fill-rule="evenodd"/>
          </g>
        </g>
        <path id="Path_47" data-name="Path 47" d="M177.145,217.449c-6.377-4.046-15.6-3.11-18.722,7.691S168.462,227.236,177.145,217.449Z" transform="translate(-41.124 -50.105)" fill-rule="evenodd"/>
        <path id="Path_48" data-name="Path 48" d="M204.405,284.363c-11.934,7.962-26.586,24.445-13.834,23.583s49.374-2.183,56.157-9.1,16.277-21.809,10.039-23S217.43,280.263,204.405,284.363Z" transform="translate(-41.393 -50.692)" fill-rule="evenodd"/>
        <path id="Path_49" data-name="Path 49" d="M82.121,272.4c-.7.726-1.5,5.023-1.546,10.268a4.954,4.954,0,0,0,4.027,4.765c20.907,5.386,59.787,10.177,84.123,12.243,4.324.366,8.526,1.184,10.559-2.983,2.1-4.314,2.2-7.652-.334-10.028-1.814-1.7-32.118-5.22-57.166-8.576-22.126-2.965-39.437-5.925-39.662-5.69Zm-1.146,17.05c-.06-.456,17.608,6.707,44.34,9.169,10.851,1,32.418,4.652,46.538,3.724,4.817-.316,4.8-.644,1.353,3.413-8.323,9.8-17.215,10.309-36.826,8.375-21.163-2.088-34.727-5.59-46.663-9.77C84.279,302.454,81.844,296.043,80.975,289.448Z" transform="translate(-40.374 -50.66)" fill-rule="evenodd"/>
        <path id="Path_50" data-name="Path 50" d="M168.019,329.738c19.263-4.265,45.849-6.192,56.158.4s19.534,28.847,14.378,30.165-35.268-1.309-37.71-4.17-5.7-22.316-7.324-22.957S168.019,329.738,168.019,329.738Z" transform="translate(-41.222 -51.178)" fill-rule="evenodd"/>
        <path id="Path_51" data-name="Path 51" d="M218.906,338.054c-8.147-.364-11.448-.923-18.488-1.149-7.96-.258-19.006-.089-15.693,1.261,2.052.838,9.788,2.044,14.713,2.566C209.48,341.8,218.544,341.307,218.906,338.054Z" transform="translate(-41.378 -51.285)" fill-rule="evenodd"/>
        <path id="Path_52" data-name="Path 52" d="M224.108,347.954c-17.363-.773-40.422-2.432-34.183.114S223.566,352.8,224.108,347.954Z" transform="translate(-41.425 -51.381)" fill-rule="evenodd"/>
        <path id="Path_53" data-name="Path 53" d="M71.589,330.709c6.51-7.747,7.052-12.6,16.278-11.5s68.908,11.472,68.908,11.472,7.325,2.067,13.836,10.6l6.51,8.532S138.869,350.222,71.589,330.709Z" transform="translate(-40.287 -51.112)" fill-rule="evenodd"/>
        <path id="Path_54" data-name="Path 54" d="M319.646,325.516l70.807-24.226-8.952,13.3-62.4,21.474Z" transform="translate(-42.688 -50.94)" fill-rule="evenodd"/>
        <path id="Path_55" data-name="Path 55" d="M433.581,254.188c-22.927-7.275-103.966,7.671-158.289,19.383l-2.486.315c25.253-10.613,127.986-26.284,152.124-28.949,3.07,1.823,5.517,3.134,6.578,3.641.485.231.939,1.315,1.36,3Z" transform="translate(-42.239 -50.393)" fill-rule="evenodd"/>
        <path id="Path_56" data-name="Path 56" d="M333.619,210.125c-4.99,13.072-10.416,34.324-9.038,34.406,1.628.1,71.349-10.627,72.434-12.189,2.329-3.354-13.54-14.831-22.325-19.834-14.854-8.462-28.118-10.526-34.673-11.625C336.581,200.306,335.577,204.993,333.619,210.125Z" transform="translate(-42.739 -49.965)" fill-rule="evenodd"/>
        <path id="Path_57" data-name="Path 57" d="M339.031,227.75c-3.527.332-7.325,3.9-7.325,13.666,0,1.726.026,3.158.067,4.342.445,12.62,11.547,10.836,10.751-.977,0,0,17.4-.565,19.7-2.733,1.165-1.093,2.247-2.518-1.661-6.73C356.737,231.192,348.294,226.7,339.031,227.75Z" transform="translate(-42.81 -50.225)" fill-rule="evenodd"/>
        <path id="Path_58" data-name="Path 58" d="M319.587,321.159l83.889-25.652-17.75,11.614-66.7,28.257Z" transform="translate(-42.687 -50.884)" fill-rule="evenodd"/>
        <path id="Path_59" data-name="Path 59" d="M87.917,253.133l-1.765,1.492c-4.719,5.52-15.979,15.38-3.561,17.162,17.791,2.55,50.123,7.29,74.8,10.593,13.922,1.865,23,4.106,31.577,3.191,7.4-.786,29.373-7.21,52.7-14.631,26.874-8.549,55.431-18.366,65.5-22.4,7.87-3.148,1.979-5.349-6.662-6.877l5.855-1.355c.042.026,13.169,3.7,6.48,9-2.305,1.838-37.523,14.2-70.092,24.561-23.482,7.47-45.667,13.942-53.277,14.753-9.826,1.045-17.365-.366-33.442-2.684-23.5-3.387-56.921-8.706-73.689-11.111-15.123-2.172-6.863-12.358-1.109-19.283C83.205,254.808,85.45,254,87.917,253.133Z" transform="translate(-40.307 -50.348)" fill-rule="evenodd"/>
        <path id="Path_60" data-name="Path 60" d="M288.784,300.635c-4.452-.267-8.775,3.267-12.163,9.2-3.554,6.226-6.013,15-6.528,24.845q-.1,1.824-.094,3.76c0,8.823,1.641,16.758,4.4,22.59,2.6,5.515,6.16,9.071,10.163,9.522.084.008.221.02.405.032,4.454.267,8.777-3.267,12.162-9.2,3.556-6.226,6.014-15,6.529-24.845q.1-1.826.1-3.76c0-8.824-1.643-16.757-4.4-22.59-2.6-5.516-6.161-9.071-10.163-9.521-.083-.01-.219-.02-.406-.032ZM273.93,308.19c3.932-6.883,9.195-10.971,14.853-10.631.139.008.326.025.563.053,5.216.585,9.67,4.842,12.77,11.407,2.95,6.248,4.708,14.659,4.708,23.943q0,1.857-.107,3.916c-.54,10.319-3.138,19.553-6.9,26.144-3.932,6.884-9.195,10.972-14.855,10.632-.139-.008-.325-.027-.563-.053-5.215-.585-9.669-4.845-12.769-11.408-2.951-6.247-4.709-14.66-4.709-23.942q0-1.86.107-3.918C267.569,324.016,270.166,314.78,273.93,308.19Z" transform="translate(-42.182 -50.904)" fill="#fff" fill-rule="evenodd"/>
        <path id="Path_61" data-name="Path 61" d="M288.325,326.435c-1.145-.069-2.308.817-3.265,2.3a14.7,14.7,0,0,0-2.044,6.964c-.019.321-.027.679-.027,1.073a13.755,13.755,0,0,0,1.339,6.259,3.83,3.83,0,0,0,2.582,2.32l.124.007c1.142.068,2.308-.816,3.263-2.3a14.7,14.7,0,0,0,2.046-6.964c.017-.321.027-.679.027-1.073a13.725,13.725,0,0,0-1.342-6.26,3.822,3.822,0,0,0-2.581-2.318l-.122-.007Zm-5.873.536c1.519-2.359,3.6-3.75,5.873-3.613l.291.03c2.122.253,3.9,1.77,5.116,4.081a16.958,16.958,0,0,1,1.713,7.736c0,.368-.013.783-.04,1.242a17.669,17.669,0,0,1-2.5,8.377c-1.519,2.358-3.6,3.749-5.872,3.613-.058,0-.155-.014-.291-.03-2.123-.252-3.906-1.77-5.117-4.08a16.939,16.939,0,0,1-1.714-7.738c0-.367.015-.781.04-1.241A17.7,17.7,0,0,1,282.451,326.971Z" transform="translate(-42.308 -51.154)" fill="#fff" fill-rule="evenodd"/>
        <path id="Path_62" data-name="Path 62" d="M285.072,328.4c-1.932-.117-3.66,2.982-3.862,6.921s1.2,7.228,3.132,7.343,3.658-2.982,3.861-6.921S287,328.513,285.072,328.4Z" transform="translate(-42.32 -51.203)" fill="#fff" fill-rule="evenodd"/>
        <path id="Path_63" data-name="Path 63" d="M285.057,329.92c-.357-.02-.8.444-1.228,1.211a10.2,10.2,0,0,0-1.1,4.343c-.009.174-.014.4-.014.673a9.51,9.51,0,0,0,.721,3.882c.3.648.614,1.052.881,1.083h.012c-.01,0-.035-.006,0,0,.355.02.8-.444,1.226-1.211a10.2,10.2,0,0,0,1.1-4.343c.009-.174.014-.4.014-.672a9.529,9.529,0,0,0-.72-3.883c-.3-.647-.613-1.052-.882-1.083h-.01c.01,0,.033,0,0,0Zm-3.931-.406c.969-1.737,2.355-2.764,3.931-2.67l.165.018a4.624,4.624,0,0,1,3.5,3,12.7,12.7,0,0,1,1.02,5.21c0,.221-.008.5-.025.826a13.187,13.187,0,0,1-1.463,5.623c-.968,1.736-2.356,2.763-3.931,2.669l-.167-.02a4.621,4.621,0,0,1-3.5-2.994,12.708,12.708,0,0,1-1.02-5.211c0-.221.008-.5.027-.828a13.191,13.191,0,0,1,1.462-5.62Zm3.2,11.6s0,0,0,0Zm.73-11.2" transform="translate(-42.305 -51.188)" fill="#fff" fill-rule="evenodd"/>
        <path id="Path_64" data-name="Path 64" d="M421.6,276.681c-2.442-.148-4.812,2.35-6.669,6.505a48.9,48.9,0,0,0-3.58,17.335q-.052,1.273-.052,2.618a46.23,46.23,0,0,0,2.41,15.672c1.428,3.813,3.377,6.255,5.571,6.532.047,0,.122.012.223.019,2.442.147,4.812-2.349,6.669-6.5a48.96,48.96,0,0,0,3.58-17.338q.052-1.272.051-2.617a46.244,46.244,0,0,0-2.41-15.673c-1.427-3.812-3.377-6.254-5.571-6.532-.046,0-.121-.012-.223-.018Zm-8.144,5.387c2.156-4.824,5.042-7.714,8.144-7.527.075,0,.179.016.308.033,2.86.36,5.3,3.283,7,7.821a48.914,48.914,0,0,1,2.582,16.611c0,.862-.019,1.772-.058,2.724a51.474,51.474,0,0,1-3.784,18.246c-2.156,4.823-5.04,7.712-8.144,7.525-.075,0-.177-.015-.308-.032-2.86-.361-5.3-3.284-7-7.821a48.931,48.931,0,0,1-2.581-16.611c0-.862.02-1.772.058-2.725A51.448,51.448,0,0,1,413.452,282.068Z" transform="translate(-43.566 -50.681)" fill="#fff" fill-rule="evenodd"/>
        <path id="Path_65" data-name="Path 65" d="M421.345,294.631c-.628-.037-1.267.588-1.791,1.632a12.4,12.4,0,0,0-1.119,4.861c-.012.222-.016.473-.016.746a11.641,11.641,0,0,0,.735,4.342c.385.925.881,1.519,1.415,1.588l.067,0c.627.038,1.266-.59,1.789-1.632a12.4,12.4,0,0,0,1.122-4.861c.009-.224.016-.472.016-.746a11.666,11.666,0,0,0-.737-4.342c-.384-.925-.881-1.518-1.416-1.588l-.065,0Zm-3.22.426c.832-1.654,1.971-2.639,3.22-2.566.03,0,.083.009.158.019,1.165.155,2.141,1.2,2.806,2.792a14.365,14.365,0,0,1,.938,5.367c0,.256-.006.544-.02.862a14.936,14.936,0,0,1-1.372,5.852c-.833,1.652-1.972,2.639-3.219,2.564-.033,0-.086-.009-.159-.019-1.165-.157-2.141-1.2-2.807-2.793a14.375,14.375,0,0,1-.939-5.366c0-.256.009-.544.022-.864A14.923,14.923,0,0,1,418.124,295.057Z" transform="translate(-43.635 -50.855)" fill="#fff" fill-rule="evenodd"/>
        <path id="Path_66" data-name="Path 66" d="M419.56,296.025c-1.059-.063-2.005,2.107-2.116,4.849s.658,5.016,1.716,5.079,2.007-2.107,2.117-4.849S420.619,296.088,419.56,296.025Z" transform="translate(-43.642 -50.889)" fill="#fff" fill-rule="evenodd"/>
        <path id="Path_67" data-name="Path 67" d="M419.552,297.085c-.194-.012-.437.314-.672.853a8.745,8.745,0,0,0-.6,3.031c0,.121-.008.277-.008.466a8.131,8.131,0,0,0,.394,2.695c.165.449.338.728.485.747h0s-.019,0,0,0c.2.014.439-.314.674-.853a8.761,8.761,0,0,0,.6-3.031c.006-.12.007-.275.007-.466a8.136,8.136,0,0,0-.394-2.695c-.164-.449-.337-.726-.483-.745h-.007c.007,0,.02,0,0,0Zm-2.155-.248c.532-1.218,1.291-1.944,2.155-1.891l.092.01c.818.1,1.485.869,1.92,2.052a10.866,10.866,0,0,1,.559,3.617c0,.153,0,.345-.014.575a11.237,11.237,0,0,1-.8,3.921c-.532,1.218-1.292,1.946-2.156,1.892l-.09-.011c-.82-.1-1.487-.869-1.92-2.052a10.811,10.811,0,0,1-.561-3.617c0-.152,0-.345.013-.573a11.292,11.292,0,0,1,.8-3.923Zm1.755,8.039Zm.4-7.795" transform="translate(-43.634 -50.878)" fill="#fff" fill-rule="evenodd"/>
        <path id="Path_68" data-name="Path 68" d="M54.873,298.168c10.97,5.905,16.349,10.4,24.51,18.2-10.657-1.641-14.8-3.515-24.837-6.485Z" transform="translate(-40.121 -50.91)" fill-rule="evenodd"/>
        <path id="Path_69" data-name="Path 69" d="M56.639,313.514c3.754,1.282,5.3,1.511,8.539,2.681,3.658,1.322,8.695,3.523,7.081,3.849-1,.2-4.629-.41-6.92-.971C60.669,317.928,56.563,315.872,56.639,313.514Z" transform="translate(-40.141 -51.059)" fill-rule="evenodd"/>
        <path id="Path_70" data-name="Path 70" d="M55.435,318.675c8,2.732,18.664,5.917,15.62,6.531S55.321,322.192,55.435,318.675Z" transform="translate(-40.13 -51.109)" fill-rule="evenodd"/>
        <path id="Path_71" data-name="Path 71" d="M254.251,283.085c-14.01,1.205-40.227.488-51.242,8.877-4.516,3.44-9.761,9.042-13.86,13.15,3.839-5.721,7.19-10.19,12.542-14.733,11.251-9.549,37.375-9.588,52.036-11.259Z" transform="translate(-41.427 -50.725)" fill="#fff" fill-rule="evenodd"/>
        <path id="Path_72" data-name="Path 72" d="M253.019,279.2c7.607-.607-5.988,15.793-8.546,17.9-1.993,1.646-7.807,2.5-10.579,2.986l-4.612.815.813-4.206c.051-.262.755-.381,1.7-.542,8.132-1.372,8.783-10.476,3.847-11.647,0,0-4.55-.575-4.664-.579l.472-1.882Z" transform="translate(-41.817 -50.726)" fill="#fff" fill-rule="evenodd"/>
        <path id="Path_73" data-name="Path 73" d="M69.1,264.3a14.227,14.227,0,0,1,3.389,7.238c.723,3.624,1.367,7.753,2.235,13.868,0-4.685.083-5.692-.221-10.27-.425-6.373-1.439-10.481-3.753-13.484A18.988,18.988,0,0,0,69.1,264.3Z" transform="translate(-40.262 -50.556)" fill="#fff" fill-rule="evenodd"/>
        <path id="Path_74" data-name="Path 74" d="M64.666,281.126l.054.049a31.211,31.211,0,0,0,4.793,3.367,14.624,14.624,0,0,1-.019-3.512c.026-.263-.371-.608-.9-1.073-4.323-3.78-.467-15.905,3.728-9.547a23.381,23.381,0,0,0,1.626,2.149l-.631-5.12-4.153-3.316c-3.237,6.055-4.5,14.811-4.5,16.877Z" transform="translate(-40.219 -50.58)" fill="#fff" fill-rule="evenodd"/>
        <path id="Path_75" data-name="Path 75" d="M335.618,229.258c4.845-.117,9.471,1.226,14.761,3.568,4.543,2.012,6.551,4.552,7.439,7.02a12.388,12.388,0,0,1,.662,3.494,8.994,8.994,0,0,0,3.783-1.291,2.55,2.55,0,0,0,.881-3.059,11.466,11.466,0,0,0-2.542-3.671c-3.828-4.127-12.271-8.622-21.534-7.568A6.13,6.13,0,0,0,335.618,229.258Z" transform="translate(-42.848 -50.225)" fill="#fff" fill-rule="evenodd"/>
        <path id="Path_76" data-name="Path 76" d="M210.082,226.021c-14.459-3.522-6.469-13.684,23.862-28.682-1.352-.04-18.5-.372-20.019.189-13.982,5.185-26.773,13.1-41.419,24.534a54.349,54.349,0,0,1-6.681,5.35q-1.081.882-2.178,1.792l112.907,10.075C256.267,236.335,224.538,229.543,210.082,226.021Z" transform="translate(-41.18 -49.93)" fill="#fff" fill-rule="evenodd"/>
        <path id="Path_77" data-name="Path 77" d="M156.922,226.531c45.985,2.6,98.386,7.012,143.907,14.037a65.252,65.252,0,0,1,10.9,2.221l-2.023-.151c-51.464-4.619-101.159-9.6-152.986-11.8a2.154,2.154,0,1,1,.2-4.3Z" transform="translate(-41.093 -50.215)" fill-rule="evenodd"/>
        <path id="Path_78" data-name="Path 78" d="M298.086,248.032c-9.223,3.525-100.785,33.775-114.349,33.775-7.345,0-72.7-8.228-100.612-12.721-4.2-.675-5.464-2.923-5.338-4.093-1.634,3.221-1.151,5.958,4.836,6.818,9.739,1.4,23.837,3.449,38.651,5.562,3.566.51,7.174,1.022,10.772,1.529,8.756,1.236,17.459,2.444,25.374,3.5,13.922,1.865,23,4.106,31.577,3.191,7.4-.786,29.373-7.21,52.7-14.631,26.874-8.549,55.431-18.366,65.5-22.4,6.177-2.472,3.874-4.359-1.582-5.8C305.979,244.064,303.741,245.87,298.086,248.032Z" transform="translate(-40.339 -50.372)" fill="#fff" fill-rule="evenodd"/>
        <path id="Path_79" data-name="Path 79" d="M46.373,325.392c-3.724,7.569,1.921,12.474,9.788,15.727,15.669,6.48,39.8,10.941,64.65,15.47,29.493,5.376,60.167,10.511,81.282,14.489l-4.838-.359c-39.654-4.168-93.989-12.072-133.035-22.141-15.273-3.937-29.382-11.022-22.407-25.869Z" transform="translate(-39.98 -51.148)" fill="#fff" fill-rule="evenodd"/>
        <path id="Path_80" data-name="Path 80" d="M309.967,354.844l90.943-29.316-92.893,35.54Z" transform="translate(-42.58 -51.175)" fill="#fff" fill-rule="evenodd"/>
        <path id="Path_81" data-name="Path 81" d="M305.441,285.259c20.4-5.869,92.431-21.215,109.907-20.462-39,9.01-73.591,17.858-105.331,28.422Z" transform="translate(-42.556 -50.586)" fill="#fff" fill-rule="evenodd"/>
        <g id="Group_3" data-name="Group 3" transform="translate(282.872 73.856)">
          <path id="Path_82" data-name="Path 82" d="M327.848,127.79c.188-.225.377-.449.563-.675a12.18,12.18,0,0,1,5.754-3.94c.656-.214.779-.142.949.519.047.179.1.358.139.539a.459.459,0,0,1-.357.628,10.516,10.516,0,0,0-6.34,5.408,11.567,11.567,0,0,0-.957,2.924l-1.76-.463a11.249,11.249,0,0,1,.813-2.725c.07-.164.125-.337.187-.505Z" transform="translate(-325.625 -123.066)" fill="#fff"/>
          <path id="Path_83" data-name="Path 83" d="M350.518,135.638a10.773,10.773,0,0,1-.645,3.44,12.269,12.269,0,0,1-7.622,7.665c-.158.058-.32.108-.482.157a.474.474,0,0,1-.653-.351c-.065-.233-.122-.467-.182-.7-.115-.451-.027-.618.422-.76a10.385,10.385,0,0,0,2.766-1.349,10.572,10.572,0,0,0,4.472-7.221,2.112,2.112,0,0,1,.058-.233,5.962,5.962,0,0,0,.606-.154C349.682,135.978,350.1,135.8,350.518,135.638Z" transform="translate(-325.771 -123.188)" fill="#fff"/>
          <path id="Path_84" data-name="Path 84" d="M329.5,133.383a16.815,16.815,0,0,1,.566-1.885,8.651,8.651,0,0,1,5.254-4.8c.391-.125.593-.01.7.387.055.21.109.421.163.632.118.459.037.607-.433.772a6.739,6.739,0,0,0-2.6,1.656,6.951,6.951,0,0,0-1.8,3.253c-.11,0-.22-.008-.329-.008Z" transform="translate(-325.661 -123.101)" fill="#fff"/>
          <path id="Path_85" data-name="Path 85" d="M346.642,137.03a8.6,8.6,0,0,1-5.769,6.312c-.38.135-.592,0-.7-.391-.062-.234-.122-.467-.181-.7-.094-.375,0-.554.373-.681a6.84,6.84,0,0,0,2.6-1.608,6.654,6.654,0,0,0,1.568-2.376c.035-.09.084-.173.128-.26a1.032,1.032,0,0,0,.214,0c.471-.093.941-.2,1.412-.285A2.17,2.17,0,0,1,346.642,137.03Z" transform="translate(-325.762 -123.202)" fill="#fff"/>
          <path id="Path_86" data-name="Path 86" d="M325.838,132.823l1.76.463c-.037.746-.106,1.49-.1,2.235a11.494,11.494,0,0,0,.184,1.556c.07.465-.017.62-.466.737-.235.06-.467.126-.7.179a.467.467,0,0,1-.614-.381,12.365,12.365,0,0,1-.1-4.7A.518.518,0,0,1,325.838,132.823Z" transform="translate(-325.623 -123.161)" fill="#fff"/>
          <path id="Path_87" data-name="Path 87" d="M346.688,136.991a2.17,2.17,0,0,0-.351.011c-.471.089-.941.192-1.412.285a1.032,1.032,0,0,1-.214,0,7.273,7.273,0,0,0,.355-2.441c-.019-.36-.069-.72-.11-1.079a.451.451,0,0,1,.376-.571c.264-.072.529-.141.8-.2a.444.444,0,0,1,.615.391,8.57,8.57,0,0,1,0,3.331C346.728,136.8,346.707,136.9,346.688,136.991Z" transform="translate(-325.808 -123.162)" fill="#fff"/>
          <path id="Path_88" data-name="Path 88" d="M350.592,135.6c-.419.166-.836.34-1.26.494a5.965,5.965,0,0,1-.606.154c0-.756.015-1.511-.011-2.265a8.359,8.359,0,0,0-.16-1.1.469.469,0,0,1,.393-.628c.258-.068.515-.137.773-.2a.455.455,0,0,1,.615.371A12,12,0,0,1,350.592,135.6Z" transform="translate(-325.845 -123.154)" fill="#fff"/>
          <path id="Path_89" data-name="Path 89" d="M340.328,137.416a3.194,3.194,0,0,0,.9-1.491,6.386,6.386,0,0,0,.113-1.215c.007-.372.08-.51.442-.605.257-.067.514-.139.772-.2a.447.447,0,0,1,.591.4,4.861,4.861,0,0,1-.62,3.227c-.328,0-.656,0-.981-.016C341.135,137.5,340.732,137.452,340.328,137.416Z" transform="translate(-325.766 -123.171)" fill="#fff"/>
          <path id="Path_90" data-name="Path 90" d="M329.494,133.449l1.519.009c.109,0,.219,0,.329.008a7.449,7.449,0,0,0-.047,2.852.439.439,0,0,1-.352.549c-.287.082-.575.158-.867.222a.439.439,0,0,1-.577-.364,8.957,8.957,0,0,1-.054-3.192C329.45,133.5,329.478,133.477,329.494,133.449Z" transform="translate(-325.659 -123.167)" fill="#fff"/>
          <path id="Path_91" data-name="Path 91" d="M335.986,132.587a3.276,3.276,0,0,0-1.1,2.262c-.01.191.011.385.016.578a.442.442,0,0,1-.348.508c-.294.085-.591.163-.89.229a.435.435,0,0,1-.565-.35,4.868,4.868,0,0,1,.27-2.605.614.614,0,0,1,.065-.1,1.135,1.135,0,0,0,.283,0c.658-.152,1.312-.312,1.969-.468C335.786,132.621,335.886,132.606,335.986,132.587Z" transform="translate(-325.695 -123.159)" fill="#fff"/>
          <path id="Path_92" data-name="Path 92" d="M335.99,132.564c-.1.019-.2.034-.3.056-.657.156-1.311.317-1.969.468a1.135,1.135,0,0,1-.283,0,12.606,12.606,0,0,1,.829-1.37,4.52,4.52,0,0,1,1.957-1.4c.4-.157.635-.048.744.362.066.249.132.5.192.748a.473.473,0,0,1-.267.6C336.589,132.2,336.291,132.383,335.99,132.564Z" transform="translate(-325.699 -123.136)" fill="#fff"/>
          <path id="Path_93" data-name="Path 93" d="M340.315,137.451c.4.036.807.081,1.212.1.326.019.654.012.981.016a4.718,4.718,0,0,1-1.935,1.922,5.285,5.285,0,0,1-.612.284.467.467,0,0,1-.7-.344c-.075-.271-.145-.545-.211-.819a.454.454,0,0,1,.236-.549C339.631,137.866,339.972,137.657,340.315,137.451Z" transform="translate(-325.753 -123.206)" fill="#fff"/>
          <path id="Path_94" data-name="Path 94" d="M336.75,134.952a1.36,1.36,0,0,1,.978-1.232,1.325,1.325,0,0,1,1.515.542.7.7,0,0,0-.063.129,1.374,1.374,0,0,1-2.271.622A.5.5,0,0,0,336.75,134.952Z" transform="translate(-325.731 -123.169)" fill="#fff"/>
          <path id="Path_95" data-name="Path 95" d="M336.75,134.958a.5.5,0,0,1,.159.06,1.374,1.374,0,0,0,2.271-.622.706.706,0,0,1,.063-.129,1.365,1.365,0,0,1,.049,1.519,1.433,1.433,0,0,1-1.521.594A1.358,1.358,0,0,1,336.75,134.958Z" transform="translate(-325.731 -123.175)" fill="#fff"/>
        </g>
      </g>
    </g>
  </g>
</svg>
