<svg xmlns="http://www.w3.org/2000/svg" width="447.257" height="562.658" viewBox="0 0 447.257 562.658">
  <g id="Group_2648" data-name="Group 2648" transform="translate(1 1)">
    <g id="Group_8" data-name="Group 8" transform="translate(127.44 130.292)">
      <rect id="Rectangle_9" data-name="Rectangle 9" width="199.071" height="338.745" rx="11.073" fill="#eb9200"/>
      <rect id="Rectangle_10" data-name="Rectangle 10" width="199.071" height="338.745" rx="11.073" fill="none" stroke="#e27700" stroke-linecap="round" stroke-linejoin="round" stroke-width="0.75"/>
      <g id="Group_187" data-name="Group 187" transform="translate(11.507)">
        <rect id="Rectangle_11" data-name="Rectangle 11" width="199.071" height="338.745" rx="11.073" fill="#ffbb25"/>
      </g>
      <rect id="Rectangle_12" data-name="Rectangle 12" width="199.071" height="262.581" transform="translate(11.507 38.082)" fill="#fff"/>
      <rect id="Rectangle_13" data-name="Rectangle 13" width="199.071" height="262.581" transform="translate(11.507 38.082)" fill="none" stroke="#e27700" stroke-linecap="round" stroke-linejoin="round" stroke-width="0.75"/>
      <rect id="Rectangle_14" data-name="Rectangle 14" width="199.071" height="338.745" rx="11.073" transform="translate(11.507)" fill="none" stroke="#e27700" stroke-linecap="round" stroke-linejoin="round" stroke-width="0.75"/>
      <ellipse id="Ellipse_1" data-name="Ellipse 1" cx="13.617" cy="13.617" rx="13.617" ry="13.617" transform="translate(97.925 306.162)" fill="#fff"/>
      <ellipse id="Ellipse_2" data-name="Ellipse 2" cx="13.617" cy="13.617" rx="13.617" ry="13.617" transform="translate(97.925 306.162)" fill="none" stroke="#e27700" stroke-linecap="round" stroke-linejoin="round" stroke-width="0.75"/>
    </g>
    <g id="Group_14" data-name="Group 14" transform="translate(0 0)">
      <ellipse id="Ellipse_3" data-name="Ellipse 3" cx="9.746" cy="9.746" rx="9.746" ry="9.746" transform="translate(393.798 93.526)" fill="none" stroke="#e27700" stroke-linecap="round" stroke-linejoin="round" stroke-width="2"/>
      <ellipse id="Ellipse_4" data-name="Ellipse 4" cx="9.746" cy="9.746" rx="9.746" ry="9.746" transform="translate(399.873 424.957)" fill="none" stroke="#e27700" stroke-linecap="round" stroke-linejoin="round" stroke-width="2"/>
      <path id="Path_7" data-name="Path 7" d="M164.249,131.625a5.069,5.069,0,1,1-5.069-5.069A5.07,5.07,0,0,1,164.249,131.625Z" transform="translate(86.296 -126.209)" fill="none" stroke="#e27700" stroke-linecap="round" stroke-linejoin="round" stroke-width="2"/>
      <path id="Path_8" data-name="Path 8" d="M99.754,267.67a5.067,5.067,0,1,1-5.069-5.069A5.068,5.068,0,0,1,99.754,267.67Z" transform="translate(-63.422 189.619)" fill="none" stroke="#e27700" stroke-linecap="round" stroke-linejoin="round" stroke-width="2"/>
      <path id="Path_9" data-name="Path 9" d="M222.871,226.445a5.069,5.069,0,1,1-5.069-5.069A5.07,5.07,0,0,1,222.871,226.445Z" transform="translate(222.386 93.916)" fill="none" stroke="#e27700" stroke-linecap="round" stroke-linejoin="round" stroke-width="2"/>
      <path id="Path_10" data-name="Path 10" d="M98.228,162.067A5.067,5.067,0,1,1,93.163,157,5.067,5.067,0,0,1,98.228,162.067Z" transform="translate(-66.965 -55.538)" fill="none" stroke="#e27700" stroke-linecap="round" stroke-linejoin="round" stroke-width="2"/>
      <path id="Path_11" data-name="Path 11" d="M106.179,234.358a9.747,9.747,0,1,1-9.745-9.745A9.747,9.747,0,0,1,106.179,234.358Z" transform="translate(-70.236 101.43)" fill="none" stroke="#e27700" stroke-linecap="round" stroke-linejoin="round" stroke-width="2"/>
      <g id="Group_9" data-name="Group 9" transform="translate(114.852)">
        <line id="Line_1" data-name="Line 1" y2="20.967" transform="translate(10.484)" fill="none" stroke="#e27700" stroke-linecap="round" stroke-linejoin="round" stroke-width="2"/>
        <line id="Line_2" data-name="Line 2" x1="20.967" transform="translate(0 10.484)" fill="none" stroke="#e27700" stroke-linecap="round" stroke-linejoin="round" stroke-width="2"/>
      </g>
      <g id="Group_10" data-name="Group 10" transform="translate(197.463 543.239)">
        <line id="Line_3" data-name="Line 3" y2="17.419" transform="translate(8.709)" fill="none" stroke="#e27700" stroke-linecap="round" stroke-linejoin="round" stroke-width="2"/>
        <line id="Line_4" data-name="Line 4" x1="17.418" transform="translate(0 8.709)" fill="none" stroke="#e27700" stroke-linecap="round" stroke-linejoin="round" stroke-width="2"/>
      </g>
      <g id="Group_11" data-name="Group 11" transform="translate(0 210.703)">
        <line id="Line_5" data-name="Line 5" y2="20.967" transform="translate(10.484)" fill="none" stroke="#e27700" stroke-linecap="round" stroke-linejoin="round" stroke-width="2"/>
        <line id="Line_6" data-name="Line 6" x1="20.967" transform="translate(0 10.484)" fill="none" stroke="#e27700" stroke-linecap="round" stroke-linejoin="round" stroke-width="2"/>
      </g>
      <g id="Group_12" data-name="Group 12" transform="translate(404.281 206.76)">
        <line id="Line_7" data-name="Line 7" y2="20.967" transform="translate(10.484)" fill="none" stroke="#e27700" stroke-linecap="round" stroke-linejoin="round" stroke-width="2"/>
        <line id="Line_8" data-name="Line 8" x1="20.967" transform="translate(0 10.483)" fill="none" stroke="#e27700" stroke-linecap="round" stroke-linejoin="round" stroke-width="2"/>
      </g>
      <g id="Group_13" data-name="Group 13" transform="translate(354.786 13.827)">
        <line id="Line_9" data-name="Line 9" y2="13.585" transform="translate(6.792)" fill="none" stroke="#e27700" stroke-linecap="round" stroke-linejoin="round" stroke-width="2"/>
        <line id="Line_10" data-name="Line 10" x1="13.585" transform="translate(0 6.792)" fill="none" stroke="#e27700" stroke-linecap="round" stroke-linejoin="round" stroke-width="2"/>
      </g>
    </g>
    <ellipse id="Ellipse_5" data-name="Ellipse 5" cx="70.59" cy="70.59" rx="70.59" ry="70.59" transform="translate(160.578 205.804)" fill="#fff3d3"/>
    <line id="Line_11" data-name="Line 11" x2="122.903" transform="translate(164.372 346.652)" fill="none" stroke="#e27700" stroke-linecap="round" stroke-linejoin="round" stroke-width="0.75"/>
    <g id="Group_15" data-name="Group 15" transform="translate(193.721 222.557)">
      <path id="Path_12" data-name="Path 12" d="M166.7,181.087a33.245,33.245,0,0,0-33.247,33.244c0,23.518,18.347,60.355,27.781,77.745a6.146,6.146,0,0,0,10.84-.048c9.408-17.666,27.87-55.193,27.87-77.7A33.244,33.244,0,0,0,166.7,181.087Zm0,52.342a19.922,19.922,0,1,1,19.921-19.921A19.92,19.92,0,0,1,166.7,233.429Z" transform="translate(-133.45 -181.087)" fill="#eb9200"/>
      <path id="Path_13" data-name="Path 13" d="M166.7,181.087a33.245,33.245,0,0,0-33.247,33.244c0,23.518,18.347,60.355,27.781,77.745a6.146,6.146,0,0,0,10.84-.048c9.408-17.666,27.87-55.193,27.87-77.7A33.244,33.244,0,0,0,166.7,181.087Zm0,52.342a19.922,19.922,0,1,1,19.921-19.921A19.92,19.92,0,0,1,166.7,233.429Z" transform="translate(-133.45 -181.087)" fill="none" stroke="#e27700" stroke-linecap="round" stroke-linejoin="round" stroke-width="0.75"/>
      <path id="Path_14" data-name="Path 14" d="M168.348,181.087A33.245,33.245,0,0,0,135.1,214.331c0,23.518,18.347,60.355,27.783,77.745a6.146,6.146,0,0,0,10.84-.048c9.406-17.666,27.868-55.193,27.868-77.7A33.243,33.243,0,0,0,168.348,181.087Zm0,52.342a19.922,19.922,0,1,1,19.924-19.921A19.922,19.922,0,0,1,168.348,233.429Z" transform="translate(-131.301 -181.087)" fill="#ffbb25"/>
      <path id="Path_15" data-name="Path 15" d="M168.348,181.087A33.245,33.245,0,0,0,135.1,214.331c0,23.518,18.347,60.355,27.783,77.745a6.146,6.146,0,0,0,10.84-.048c9.406-17.666,27.868-55.193,27.868-77.7A33.243,33.243,0,0,0,168.348,181.087Zm0,52.342a19.922,19.922,0,1,1,19.924-19.921A19.922,19.922,0,0,1,168.348,233.429Z" transform="translate(-131.301 -181.087)" fill="none" stroke="#e27700" stroke-linecap="round" stroke-linejoin="round" stroke-width="0.75"/>
    </g>
    <path id="Path_16" data-name="Path 16" d="M204.7,265.833H142.9a11.678,11.678,0,0,1-11.677-11.677h0a11.679,11.679,0,0,1,11.677-11.68h61.8a11.679,11.679,0,0,1,11.678,11.68h0A11.678,11.678,0,0,1,204.7,265.833Z" transform="translate(57.369 121.364)" fill="#ffbb25"/>
    <path id="Path_17" data-name="Path 17" d="M132.353,293.311h39.084m101.445-86.093h39.087M117.087,242.907h21.576m145.485,79.759h21.576M277.648,281.8h8.8M174.994,178.593h18.321" transform="translate(0.342 -5.405)" fill="none" stroke="#e27700" stroke-linecap="round" stroke-linejoin="round" stroke-width="0.75"/>
    <g id="Group_18" data-name="Group 18" transform="translate(198.036 313.261)">
      <g id="Group_16" data-name="Group 16" transform="translate(0 0)">
        <circle id="Ellipse_6" data-name="Ellipse 6" cx="34.702" cy="34.702" r="34.702" transform="translate(0 49.076) rotate(-45)" fill="#ffef77" opacity="0.29"/>
        <circle id="Ellipse_7" data-name="Ellipse 7" cx="21.864" cy="21.864" r="21.864" transform="translate(18.155 49.076) rotate(-45)" fill="#ffef77" opacity="0.61"/>
      </g>
      <g id="Group_17" data-name="Group 17" transform="translate(46.976 43.438)">
        <path id="Path_18" data-name="Path 18" d="M160.209,323.731c14.277,13.935,29.508,34.446,45.987,38.478,18.039,4.415,62.827-5.314,50.978-52.605-5.093-20.325-10.51-38.652-28.582-36.28-11.24,1.474-23.619,4.648-34.317,11.567,0,0-19.84-32.555-22.31-37.115-5.3-9.772-21.5-3.625-16.837,8.234,5.981,15.219,29.175,63.619,29.175,63.619s-10.845-9.408-16.673-15C161.227,298.48,144.577,308.473,160.209,323.731Z" transform="translate(-153.708 -242.928)" fill="#fff"/>
        <path id="Path_19" data-name="Path 19" d="M160.209,323.731c14.277,13.935,29.508,34.446,45.987,38.478,18.039,4.415,62.827-5.314,50.978-52.605-5.093-20.325-10.51-38.652-28.582-36.28-11.24,1.474-23.619,4.648-34.317,11.567,0,0-19.84-32.555-22.31-37.115-5.3-9.772-21.5-3.625-16.837,8.234,5.981,15.219,29.175,63.619,29.175,63.619s-10.845-9.408-16.673-15C161.227,298.48,144.577,308.473,160.209,323.731Z" transform="translate(-153.708 -242.928)" fill="none" stroke="#e27700" stroke-linecap="round" stroke-linejoin="round" stroke-width="2"/>
      </g>
    </g>
  </g>
</svg>
